<svg width="24" height="26" viewBox="0 0 24 26" fill="none" id="svg2106073754_732">
<path d="M0.761576 0C1.18171 0 1.52962 0.332999 1.52962 0.749248V11.4185C1.52962 15.9012 5.26484 19.5449 9.86001 19.5449H20.9934L16.1751 15.914C15.8403 15.6642 15.7812 15.1903 16.0372 14.8637C16.2932 14.5372 16.779 14.4795 17.1138 14.7293L23.7046 19.6986C23.895 19.8395 24 20.0573 24 20.2878C24 20.5183 23.8884 20.7361 23.7046 20.8769L17.1072 25.8463C16.9694 25.9488 16.8053 26 16.6412 26C16.4114 26 16.1882 25.8975 16.0372 25.7118C15.7812 25.3852 15.8403 24.9178 16.1751 24.6616L20.9934 21.037H9.86001C4.42458 21.037 9.15527e-05 16.7209 9.15527e-05 11.4185V0.749248C-0.00647354 0.332999 0.341446 0 0.761576 0Z" fill="#2F2F2F"/>
</svg>