<svg xmlns="http://www.w3.org/2000/svg" width="6" height="9" viewBox="0 0 6 9" fill="none">
                    <path d="M4.94922 4.82422L1.82422 7.94922C1.69401 8.06641 1.54427 8.125 1.375 8.125C1.20573 8.125 1.05599 8.06641 0.925781 7.94922C0.808594 7.81901 0.75 7.66927 0.75 7.5C0.75 7.33073 0.808594 7.18099 0.925781 7.05078L3.62109 4.375L0.925781 1.69922C0.808593 1.56901 0.75 1.41927 0.75 1.25C0.75 1.08073 0.808593 0.930989 0.925781 0.800781C1.05599 0.683594 1.20573 0.625 1.375 0.625C1.54427 0.625 1.69401 0.683594 1.82422 0.800781L4.94922 3.92578C5.06641 4.05599 5.125 4.20573 5.125 4.375C5.125 4.54427 5.06641 4.69401 4.94922 4.82422Z" fill="black"/>
                    </svg>