<svg style="width:100%;height:100%;" xmlns="http://www.w3.org/2000/svg"><defs><svg viewBox="0 0 22 23" id="svg9105248716"><path d="M 5.579 0.5 L 0.079 0.5 L 0.079 6 C 0.079 8.801 2.172 11.113 4.88 11.456 C 2.134 11.764 0 14.094 0 16.922 L 0 22.422 L 5.5 22.422 C 8.301 22.422 10.613 20.328 10.956 17.62 C 11.264 20.366 13.594 22.5 16.422 22.5 L 21.922 22.5 L 21.922 17 C 21.922 14.199 19.828 11.887 17.12 11.544 C 19.866 11.236 22 8.906 22 6.079 L 22 0.579 L 16.5 0.579 C 13.699 0.579 11.387 2.672 11.044 5.38 C 10.736 2.634 8.406 0.5 5.579 0.5 Z" fill="var(--token-d98a4c00-7e0c-42c7-87be-9d10760cb03b, rgb(140, 255, 46)) /* {&quot;name&quot;:&quot;Primary&quot;} */"></path></svg></defs><use href="#svg9105248716"></use></svg>